HIERARCHY
ROOT Hips
{
  OFFSET -69.4423 88.0299 51.6846
  CHANNELS 6 Xposition Yposition Zposition Zrotation Xrotation Yrotation
  JOINT Spine
  {
    OFFSET 12.0259 -0.162853 1.93176e-005
    CHANNELS 3 Zrotation Xrotation Yrotation
    JOINT Spine1
    {
      OFFSET 15.3169 -0.0121909 0
      CHANNELS 3 Zrotation Xrotation Yrotation
      JOINT Spine2
      {
        OFFSET 15.3176 -0.0121922 0
        CHANNELS 3 Zrotation Xrotation Yrotation
        JOINT Neck
        {
          OFFSET 19.9142 1.56236 0
          CHANNELS 3 Zrotation Xrotation Yrotation
          JOINT Head
          {
            OFFSET 6.92646 0 0
            CHANNELS 3 Zrotation Xrotation Yrotation
            End Site
            {
              OFFSET 20.7666 0 0
            }
          }
          JOINT LeftShoulder
          {
            OFFSET -4.94072 -1.14703 8.14416
            CHANNELS 3 Zrotation Xrotation Yrotation
            JOINT LeftArm
            {
              OFFSET 14.108 0 -2.74767e-005
              CHANNELS 3 Zrotation Xrotation Yrotation
              JOINT LeftForeArm
              {
                OFFSET 28.5802 -0.0783412 -0.0284884
                CHANNELS 3 Zrotation Xrotation Yrotation
                JOINT LeftHand
                {
                  OFFSET 27.092 0 0
                  CHANNELS 3 Zrotation Xrotation Yrotation
                  End Site
                  {
                    OFFSET 9.55928 -0.186424 0.145352
                  }
                }
              }
            }
          }
          JOINT RightShoulder
          {
            OFFSET -7.15748 -1.33027 -6.24935
            CHANNELS 3 Zrotation Xrotation Yrotation
            JOINT RightArm
            {
              OFFSET 14.108 0 1.82997e-005
              CHANNELS 3 Zrotation Xrotation Yrotation
              JOINT RightForeArm
              {
                OFFSET 28.5802 -0.0707221 2.30684e-005
                CHANNELS 3 Zrotation Xrotation Yrotation
                JOINT RightHand
                {
                  OFFSET 27.092 0 -1.30073e-005
                  CHANNELS 3 Zrotation Xrotation Yrotation
                  End Site
                  {
                    OFFSET 9.55929 -0.186417 -0.145354
                  }
                }
              }
            }
          }
        }
      }
    }
  }
  JOINT LeftUpLeg
  {
    OFFSET 0.00499725 -0.534999 8.837
    CHANNELS 3 Zrotation Xrotation Yrotation
    JOINT LeftLeg
    {
      OFFSET 39.9035 -0.00124594 0.000252775
      CHANNELS 3 Zrotation Xrotation Yrotation
      JOINT LeftFoot
      {
        OFFSET 39.6689 0 0
        CHANNELS 3 Zrotation Xrotation Yrotation
        JOINT LeftToe
        {
          OFFSET 10.1624 13.6296 0
          CHANNELS 3 Zrotation Xrotation Yrotation
          End Site
          {
            OFFSET 8.38147 0 0
          }
        }
      }
    }
  }
  JOINT RightUpLeg
  {
    OFFSET 0.00499725 -0.535 -8.837
    CHANNELS 3 Zrotation Xrotation Yrotation
    JOINT RightLeg
    {
      OFFSET 39.9036 -0.000268477 0.000106433
      CHANNELS 3 Zrotation Xrotation Yrotation
      JOINT RightFoot
      {
        OFFSET 39.6689 1.17892e-005 0
        CHANNELS 3 Zrotation Xrotation Yrotation
        JOINT RightToe
        {
          OFFSET 10.1624 13.6296 0
          CHANNELS 3 Zrotation Xrotation Yrotation
          End Site
          {
            OFFSET 8.38147 0 0
          }
        }
      }
    }
  }
}
MOTION
Frames:	19
Frame Time:	0.0333333
-74.8116 88.8278 76.2633 -100.686 84.0715 -166.151 0.665141 0.161152 0.998892 1.32739 0.334345 1.99602 1.32739 0.334346 1.99602 -19.4921 1.48999 -11.6859 47.2212 -0.234164 3.6766 -161.981 -1.12227 -95.2378 -19.8368 2.32895 86.3985 -22.5709 2.51389 -14.8375 8.84991 -83.8469 10.7129 -161.936 -2.94359 73.1914 -10.6648 -2.68679 -79.8357 -21.5762 -2.60338 13.5975 1.71481 79.4597 -1.52228 -5.92435 -4.03971 -167.498 -18.1758 0.712643 -1.07455 -7.69067 -7.00806 -2.00885 90 7.95139e-016 -1.59028e-015 -6.93453 -1.75101 175.965 -28.0216 -0.489107 0.0416298 7.94686 5.47928 -0.338241 90 4.96962e-016 7.55382e-015 
-73.5708 88.7754 76.3433 -96.4599 83.453 -170.476 0.704897 0.18549 0.980341 1.40654 0.383482 1.95851 1.40652 0.383479 1.95851 -19.3762 1.61248 -11.3044 47.2961 -0.159474 3.15888 -162.062 -0.844271 -94.942 -19.8623 2.71397 86.1524 -22.7457 2.55617 -14.9071 7.89322 -83.9838 10.029 -162.005 -2.65424 73.5176 -12.2616 -3.13725 -79.3801 -21.3696 -2.55831 13.4971 2.13012 81.0877 -1.94476 -5.29822 -4.94677 -166.899 -17.5436 0.67255 -1.07361 -10.1989 -7.40442 -2.55058 90 2.38542e-015 -9.54166e-015 -6.25609 -1.2755 175.497 -27.9011 -0.485327 0.0645309 7.90267 6.70079 -0.278539 90 -1.54058e-015 3.97569e-015 
-72.205 88.6333 76.3948 -94.0413 82.93 -173.117 0.783025 0.190004 1.0119 1.56258 0.394288 2.02126 1.56256 0.394282 2.02126 -19.505 1.85067 -11.3264 47.2398 0.344716 3.09652 -161.888 -0.652633 -95.0485 -19.919 2.72154 85.9991 -22.9481 2.59241 -15.0057 8.80718 -84.6733 10.9709 -161.831 -2.46223 73.428 -12.6071 -3.07244 -78.8691 -21.5944 -2.60442 13.6144 2.0396 81.0936 -1.88432 -4.90057 -5.53626 -166.395 -17.2841 0.631973 -1.05642 -12.7789 -7.524 -3.05868 90 1.03368e-014 1.59028e-015 -5.85764 -1.10808 174.93 -28.065 -0.480499 0.0752218 7.90228 7.38604 -0.240471 90 6.36111e-015 1.59028e-015 
-70.6502 88.4444 76.4941 -90.9359 82.6059 -176.37 0.878489 0.243485 0.997568 1.75264 0.502772 1.99149 1.75263 0.502759 1.99147 -19.7573 1.99424 -10.9732 47.5305 0.425118 2.64646 -161.606 -0.430364 -94.7748 -19.9493 2.77953 85.8113 -23.2174 2.63793 -15.136 9.443 -84.8974 11.5438 -161.528 -2.2331 73.7271 -13.0144 -2.88722 -78.4443 -21.5379 -2.59414 13.577 2.3142 81.5839 -2.12706 -3.87966 -6.50753 -166.229 -16.701 0.608477 -1.05959 -14.6665 -7.58104 -3.42161 90 1.43125e-014 7.95139e-015 -5.42786 -0.804775 174.201 -28.7598 -0.468213 0.0814879 8.14561 7.86883 -0.262463 90 -5.11871e-015 -1.19271e-015 
-68.9644 88.095 76.5246 -88.7966 82.2331 -178.761 0.928149 0.257116 1.01406 1.85162 0.531074 2.02403 1.85162 0.531065 2.02402 -19.7885 2.12559 -10.7421 47.4125 0.607298 2.35436 -161.546 -0.22837 -94.6232 -20.275 2.97196 85.7147 -23.476 2.67805 -15.2612 10.958 -85.5395 13.0199 -161.461 -2.02495 73.9107 -13.0979 -2.80344 -77.9927 -21.8348 -2.65831 13.7308 2.39552 81.872 -2.21541 -3.00318 -7.57964 -166.205 -16.6548 0.659123 -1.08467 -12.5131 -6.1525 -2.60388 90 -3.18055e-015 3.18055e-015 -5.56177 -0.364241 173.466 -29.5891 -0.450341 0.090526 8.04397 8.66877 -0.247705 90 -1.13804e-014 -9.93923e-016 
-67.0167 87.6337 76.5726 -86.4913 81.9606 178.949 1.00011 0.301938 0.981568 1.99495 0.621445 1.95791 1.99494 0.621429 1.95789 -19.9976 2.02122 -11.2906 47.2649 0.978648 3.47455 -161.367 -0.594416 -95.105 -20.912 2.91545 85.598 -23.6859 2.71953 -15.3676 13.0911 -86.1313 15.2358 -161.282 -2.40241 73.4477 -12.9464 -2.58811 -77.5305 -22.1347 -2.7256 13.8899 2.27955 81.7144 -2.13261 -2.21224 -7.58645 -166.79 -16.7433 0.713306 -1.10886 -9.74623 -5.63227 -2.03608 90 1.98785e-015 -3.97569e-015 -5.45123 0.140307 172.247 -30.7778 -0.428131 0.0946565 8.52821 8.89093 -0.365368 90 -2.36305e-014 1.03368e-014 
-64.9853 87.3738 76.5803 -85.2988 81.8044 177.687 0.950083 0.351171 0.967924 1.89414 0.718762 1.93011 1.89414 0.71876 1.93009 -19.5102 2.14907 -10.9958 47.1647 1.13849 2.97159 -161.813 -0.259174 -94.8903 -20.8712 2.94395 85.738 -23.7512 2.7308 -15.4047 12.9213 -86.0742 15.0593 -161.725 -2.07239 73.6749 -12.2791 -2.53863 -77.1745 -22.2279 -2.74851 13.9385 2.15534 81.4329 -2.01441 -1.71407 -6.29103 -167.483 -16.2593 0.766026 -1.12557 -6.98542 -4.60273 -1.41304 90 1.07344e-014 7.95139e-016 -5.4984 0.619724 171.155 -31.7392 -0.404449 0.101998 8.27604 9.68793 -0.334068 90 -5.41688e-015 6.55989e-015 
-62.7352 87.2117 76.5259 -84.512 81.2275 177.012 0.900955 0.336637 0.904968 1.79653 0.687842 1.80473 1.79652 0.687839 1.80472 -19.4109 2.17556 -10.9258 47.5229 1.26801 2.97922 -161.897 -0.180079 -94.8291 -20.5714 2.68978 85.6376 -23.6629 2.7196 -15.3694 8.60675 -84.994 10.8193 -161.826 -2.01943 73.7472 -11.4769 -2.79631 -77.1902 -22.8331 -2.888 14.2607 2.15262 81.6379 -2.0183 -1.50418 -4.51112 -168.753 -15.7487 0.818444 -1.13029 -4.58927 -3.1531 -0.848086 90 8.34896e-015 7.95139e-016 -5.15466 1.45851 169.775 -32.2713 -0.37967 0.112839 7.56617 10.4268 -0.191225 90 -9.96408e-015 -4.57205e-015 
-60.38 87.146 76.4361 -83.9873 80.4228 176.745 0.850092 0.303387 0.831395 1.69574 0.619543 1.65839 1.69572 0.619534 1.65839 -19.141 2.5049 -10.6175 48.3869 1.65938 2.20498 -162.086 0.321839 -94.6353 -20.4599 2.45665 85.666 -23.4939 2.68532 -15.2925 9.74343 -84.9976 11.8102 -162.032 -1.54074 73.9372 -10.0794 -2.6471 -77.2239 -23.1995 -2.97556 14.4537 2.20859 82.1747 -2.07863 -1.58236 -3.03208 -170.62 -15.6903 0.863903 -1.14118 -2.53448 -3.19236 -0.647489 90 -3.18055e-015 4.77083e-015 -4.47099 2.48662 168.304 -32.418 -0.353655 0.123354 6.21587 11.4729 0.128901 90 -1.57785e-015 -8.74653e-015 
-57.8221 87.2419 76.1057 -84.7521 79.2207 178.353 0.874742 0.205006 0.657247 1.74706 0.420495 1.31145 1.74706 0.420492 1.31143 -19.3955 2.73203 -10.7075 48.6108 1.90457 1.92316 -161.767 0.497567 -94.7495 -20.3842 1.52509 85.4265 -23.2291 2.65208 -15.1781 8.35964 -84.5858 10.6026 -161.747 -1.42619 73.7888 -8.83506 -2.23805 -77.3487 -23.359 -3.01972 14.5352 2.33641 82.6359 -2.20677 -1.63973 -2.35079 -173.403 -15.153 0.899832 -1.18416 -1.47386 -3.84481 -0.614298 90 7.95139e-016 1.59028e-015 -4.23323 2.92941 166.169 -32.8256 -0.311637 0.129605 4.55416 12.9101 0.59276 90 1.86361e-015 -6.11263e-015 
-55.3551 87.404 75.6719 -84.6056 78.0344 178.465 0.88151 0.165656 0.593586 1.76128 0.340847 1.18471 1.76127 0.340841 1.18471 -19.165 2.93489 -10.5445 48.4926 1.94921 1.21008 -161.938 0.832932 -94.6472 -20.6706 1.15495 85.2208 -22.9853 2.59109 -15.0695 9.42294 -84.3914 11.3327 -161.955 -1.13934 73.8992 -7.36925 -2.44226 -77.8424 -24.2346 -3.22997 14.9971 2.20645 82.4094 -2.09533 -1.57615 -3.251 -175.299 -14.8481 0.922156 -1.21583 -0.816371 -3.60917 -0.517842 90 -2.38542e-015 -0 -4.12182 3.38109 164.916 -33.3752 -0.272301 0.131619 2.3585 14.8664 1.29961 90 -2.48481e-016 1.20265e-014 
-52.9057 87.5628 75.1996 -84.344 77.4329 179.387 1.02634 0.253162 0.357589 2.05111 0.513234 0.71078 2.0511 0.513219 0.710767 -19.7085 3.27545 -11.1182 48.6608 2.68802 1.52398 -161.311 0.877126 -95.2796 -21.6682 0.371172 84.66 -23.1301 2.62797 -15.1591 8.76861 -84.5053 10.9432 -161.378 -1.16546 73.2739 -6.56087 -2.37201 -78.2334 -25.0773 -3.43859 15.4352 2.40819 83.2018 -2.30053 -0.825516 -1.72199 -177.719 -12.9576 0.947546 -1.20141 -0.657289 -0.742243 -0.219898 90 -3.22031e-014 -1.27222e-014 -4.58325 4.8101 163.035 -35.099 -0.202617 0.137928 -0.119084 17.4407 2.27359 90 1.2921e-015 -2.78299e-015 
-50.9507 87.7309 74.6769 -84.4528 77.2842 179.991 1.09905 0.416249 0.226 2.19655 0.8373 0.444177 2.19654 0.83729 0.444158 -18.7895 3.59085 -11.2478 47.1826 3.92176 1.87637 -162.136 1.30364 -95.5331 -22.1865 0.218993 84.2447 -23.6508 2.71917 -15.4329 8.87857 -84.7579 11.0217 -162.22 -0.78621 73.0664 -6.34938 -2.62876 -78.7236 -25.573 -3.56659 15.6999 2.51926 83.5023 -2.40218 -0.141098 0.452061 -179.226 -11.2173 0.963424 -1.16409 -0.783194 2.2345 0.0436428 90 5.56597e-015 3.18055e-015 -5.16156 7.55654 162.976 -36.9538 -0.150583 0.144287 -2.24963 21.3695 3.4 90 -5.76476e-015 -6.75868e-015 
-49.1736 87.827 74.2755 -84.7731 76.6282 -179.076 1.1481 0.456526 0.0338515 2.29603 0.914163 0.0587323 2.29602 0.914154 0.0587211 -18.9363 3.65249 -10.9238 47.4342 3.96153 1.61518 -161.985 1.45288 -95.3166 -22.8749 0.71283 83.5471 -24.6164 2.87885 -15.9029 10.8635 -85.3401 12.7476 -162.066 -0.636062 73.3654 -6.20305 -2.6725 -79.4147 -25.8822 -3.64133 15.8563 2.47004 83.3711 -2.34493 0.40088 1.44646 179.105 -9.97746 0.977469 -1.13646 -0.704274 3.96812 0.182199 90 -2.82274e-014 9.54166e-015 -6.3185 8.40694 163.248 -39.3811 -0.162169 0.159379 0.386144 21.8366 2.35289 90 -4.96962e-016 -3.77691e-015 
-47.7996 87.8476 73.8534 -85.4663 75.616 -178.781 1.15813 0.331362 0.0344499 2.31611 0.663772 0.0623298 2.31611 0.663779 0.0623122 -18.892 3.84371 -11.046 47.6036 4.66292 1.9537 -161.996 1.58112 -95.5366 -22.9485 1.24728 82.8257 -25.2069 2.9971 -16.1731 17.5166 -87.0553 19.4921 -162.077 -0.510573 73.1919 -6.39029 -2.38204 -80.255 -25.8972 -3.64135 15.8711 2.27775 82.8963 -2.15652 -1.00533 0.945932 178.603 -12.0555 0.990667 -1.08638 -0.0953872 4.32126 0.218241 90 -7.95139e-016 -1.43125e-014 -7.81095 8.22054 165.305 -41.4357 -0.23876 0.112607 4.76282 16.5831 0.488507 90 3.77691e-015 -8.74653e-015 
-46.6494 87.9442 73.6737 -85.2084 74.4956 -179.884 1.21987 0.270713 0.137927 2.43913 0.544797 0.270233 2.43913 0.54479 0.270228 -19.2037 3.89857 -10.3402 48.7176 4.03232 0.728069 -161.669 1.87419 -94.9215 -22.3304 1.41836 82.0758 -25.321 3.03318 -16.1981 17.1006 -87.0162 19.218 -161.76 -0.213339 73.8005 -5.91911 -1.92853 -81.1268 -25.6873 -3.58551 15.7598 2.18556 82.7934 -2.06336 -2.06567 0.136008 178.628 -14.0799 1.00136 -1.04282 1.03878 4.26462 0.222938 90 -5.1684e-015 1.59028e-015 -9.43885 7.30976 168.395 -42.9426 -0.299383 0.0318877 8.48442 9.98642 -0.618523 90 -2.38542e-015 -2.22639e-014 
-45.73 87.9035 73.4886 -85.5021 73.5855 179.562 1.2407 0.213988 0.212327 2.48064 0.433019 0.420128 2.48063 0.433004 0.420126 -19.2136 4.02674 -9.73235 49.0702 4.1241 0.15032 -161.632 2.21395 -94.399 -20.998 1.63228 81.2987 -24.9153 2.95583 -15.9477 20.0743 -87.0884 22.0479 -161.738 0.142779 74.2994 -5.90744 -1.94651 -82.0758 -25.8095 -3.61184 15.8233 2.05892 82.5417 -1.93623 -3.50112 -0.487287 178.787 -16.6032 1.00931 -0.976693 1.74509 4.17734 0.220404 90 -6.75868e-015 -4.77083e-015 -11.2115 5.35085 171.882 -44.1822 -0.327134 -0.0598402 11.1742 5.64213 -1.04373 90 -6.36111e-015 -7.95139e-015 
-44.8058 87.7277 73.3158 -85.8255 72.574 179.714 1.28179 0.144538 0.130551 2.56328 0.292402 0.258028 2.56328 0.292395 0.258011 -19.4073 3.92534 -9.95065 48.9045 4.52769 1.12444 -161.433 1.97183 -94.5419 -19.421 1.44816 80.239 -24.0354 2.79499 -15.4471 15.3399 -86.3426 17.4519 -161.575 -0.108453 74.1042 -6.95514 -2.25146 -82.8733 -25.9244 -3.64152 15.8969 2.18187 82.4007 -2.06102 -4.86652 -0.614626 178.342 -19.1344 1.01282 -0.892024 3.10938 4.82913 0.210066 90 6.75868e-015 -1.59028e-015 -12.7571 1.97166 174.448 -45.1761 -0.315388 -0.148116 14.0822 1.60208 -1.13979 90 -8.74653e-015 -1.27222e-014 
-43.9195 87.4824 73.1494 -86.0556 71.6494 179.564 1.29872 0.0764665 0.118064 2.59729 0.155981 0.23451 2.59728 0.155978 0.234503 -19.3031 3.91421 -10.1475 48.2297 4.92644 1.74455 -161.519 1.87535 -94.6996 -18.3455 1.56465 79.3969 -23.2286 2.63347 -14.9867 15.7953 -86.2366 17.737 -161.692 -0.196884 73.916 -8.32433 -2.71958 -83.4705 -26.209 -3.70463 16.0501 2.16614 82.5272 -2.04511 -6.26268 -0.435466 178.185 -21.7257 1.01443 -0.807444 4.32963 5.59903 0.182542 90 -1.23246e-014 6.36111e-015 -13.8165 -2.50346 176.805 -45.3507 -0.262851 -0.264478 17.0695 -3.84742 -0.639011 90 -2.54444e-014 -9.54166e-015 
